# xmcd
#
# Track frame offsets: 
#        150
#        17496
#        42897
#        64127
#        91321
#        109618
#        129173
#        153440
#        176445
#        191669
#        208254
#        230185
#        248041
#        264981
#
# Disc length: 3811 seconds
#
# Revision: 2
# Processed by: cddbd v1.5.2PL0 Copyright (c) Steve Scherf et al.
# Submitted via: ExactAudioCopy v1.0b3
#
DISCID=b70ee10e
DTITLE=Santana - Guitar Heaven: The Greatest Guitar Classics Of All Ti
DTITLE=me
DYEAR=2010
DGENRE=Rock
TTITLE0=Whole Lotta Love [Feat. Chris Cornell]
TTITLE1=Can't You Hear Me Knocking [Feat. Scott Weiland]
TTITLE2=Sunshine Of Your Love [Feat. Rob Thomas]
TTITLE3=While My Guitar Gently Weeps [Feat. India.Arie and Yo-Yo Ma]
TTITLE4=Photograph [Feat. Chris Daughtry]
TTITLE5=Back In Black [Feat. Nas]
TTITLE6=Riders On The Storm [Feat. Chester Bennington and Ray Manzarek]
TTITLE7=Smoke On The Water [Feat. Jacoby Shaddix]
TTITLE8=Dance The Night Away [Feat. Pat Monahan]
TTITLE9=Bang A Gong [Feat. Gavin Rossdale]
TTITLE10=Little Wing [Feat. Joe Cocker]
TTITLE11=I Ain't Superstitious [Feat. Jonny Lang]
TTITLE12=Fortunate Son [Feat. Scott Stapp] [Bonus Track]
TTITLE13=La Grange [Feat. Kenichi Asai] [Bonus Track]
EXTD=YEAR: 2010
EXTT0=
EXTT1=
EXTT2=
EXTT3=
EXTT4=
EXTT5=
EXTT6=
EXTT7=
EXTT8=
EXTT9=
EXTT10=
EXTT11=
EXTT12=
EXTT13=
PLAYORDER=
